# xmcd CD database file
#
# Track frame offsets:
#	150
#	23105
#	43773
#	65720
#	80234
#	91553
#	93539
#	112316
#	129828
#	151040
#
# Disc length: 2073 seconds
#
# Revision: 14
# Processed by: cddbd v1.5.2PL0 Copyright (c) Steve Scherf et al.
# Submitted via: CDex 1.70beta3
#
DISCID=7c08170a
DTITLE=capsule - L.D.K. Lounge Designers Killer
DYEAR=2005
DGENRE=Dance
TTITLE0=空飛ぶ都市計画
TTITLE1=テレポーテーション
TTITLE2=Lounge Designers Killer
TTITLE3=twinkle twinkle poppp!
TTITLE4=itC taC
TTITLE5=アンテナ
TTITLE6=グライダー
TTITLE7=人類の進歩と調和
TTITLE8=do do pi do
TTITLE9=fin.
EXTD=YEAR: 2005
EXTT0=
EXTT1=
EXTT2=
EXTT3=
EXTT4=
EXTT5=
EXTT6=
EXTT7=
EXTT8=
EXTT9=
PLAYORDER=
